<svg xmlns="http://www.w3.org/2000/svg" version="1.1" width="480" height="480" viewBox="0 0 480 480"><rect x="0" y="0" width="480" height="480" fill="transparent" stroke="" stroke-width="0" />
<rect x="40.0" y="40.0" width="80.0" height="80.0" fill="rgb(243, 176, 146)" stroke="" stroke-width="0" />
<rect x="40.0" y="200.0" width="80.0" height="80.0" fill="rgb(243, 176, 146)" stroke="" stroke-width="0" />
<rect x="120.0" y="40.0" width="80.0" height="80.0" fill="rgb(243, 176, 146)" stroke="" stroke-width="0" />
<rect x="120.0" y="120.0" width="80.0" height="80.0" fill="rgb(243, 176, 146)" stroke="" stroke-width="0" />
<rect x="120.0" y="200.0" width="80.0" height="80.0" fill="rgb(243, 176, 146)" stroke="" stroke-width="0" />
<rect x="120.0" y="280.0" width="80.0" height="80.0" fill="rgb(243, 176, 146)" stroke="" stroke-width="0" />
<rect x="200.0" y="280.0" width="80.0" height="80.0" fill="rgb(243, 176, 146)" stroke="" stroke-width="0" />
<rect x="200.0" y="360.0" width="80.0" height="80.0" fill="rgb(243, 176, 146)" stroke="" stroke-width="0" />
<rect x="280.0" y="40.0" width="80.0" height="80.0" fill="rgb(243, 176, 146)" stroke="" stroke-width="0" />
<rect x="280.0" y="120.0" width="80.0" height="80.0" fill="rgb(243, 176, 146)" stroke="" stroke-width="0" />
<rect x="280.0" y="200.0" width="80.0" height="80.0" fill="rgb(243, 176, 146)" stroke="" stroke-width="0" />
<rect x="280.0" y="280.0" width="80.0" height="80.0" fill="rgb(243, 176, 146)" stroke="" stroke-width="0" />
<rect x="360.0" y="40.0" width="80.0" height="80.0" fill="rgb(243, 176, 146)" stroke="" stroke-width="0" />
<rect x="360.0" y="200.0" width="80.0" height="80.0" fill="rgb(243, 176, 146)" stroke="" stroke-width="0" /></svg>