<svg xmlns="http://www.w3.org/2000/svg" version="1.1" width="1000" height="1000" viewBox="0 0 1000 1000"><circle cx="500.0" cy="500.0" r="500.0" fill="rgb(238, 238, 238)" stroke="" stroke-width="" />
<circle cx="500.0" cy="500.0" r="500.0" fill="rgb(238, 238, 238)" stroke="" stroke-width="" />
<path fill="rgb(8, 33, 232)" stroke="rgb(8, 33, 232)" stroke-width="1" d="M 500.0,500.0A 0.0,0.0 0 0 1 500.0,500.0L 569.8991129338434,396.3703034306198A 125.0,125.0 0 0 0 398.87287570313157,573.4731565365591L 500.0,500.0" />
<path fill="rgb(8, 33, 232)" stroke="rgb(8, 33, 232)" stroke-width="1" d="M 402.9179606750063,570.5342302750968A 120.0,120.0 0 0 1 567.1031484164896,400.51549129339503L 637.002261350333,296.8857947240148A 245.0,245.0 0 0 0 301.7908363781379,644.0073868116559L 402.9179606750063,570.5342302750968" />
<path fill="rgb(8, 33, 232)" stroke="rgb(8, 33, 232)" stroke-width="1" d="M 425.83592135001265,728.2535639108369A 240.0,240.0 0 0 1 339.40865447387404,321.6452418854254L 255.76732867901677,228.75213870075112A 365.0,365.0 0 0 0 387.2087970531442,847.135628447731L 425.83592135001265,728.2535639108369" />
<path fill="rgb(8, 33, 232)" stroke="rgb(8, 33, 232)" stroke-width="1" d="M 208.75388202501898,711.6026908252904A 360.0,360.0 0 0 1 400.7705519058804,153.94578946220514L 366.3158824287556,33.788077469915265A 485.0,485.0 0 0 0 107.62675772815055,785.0758473618496L 208.75388202501898,711.6026908252904" /></svg>