<svg xmlns="http://www.w3.org/2000/svg" version="1.1" width="1000" height="1000" viewBox="0 0 1000 1000"><circle cx="500.0" cy="500.0" r="500.0" fill="rgb(238, 238, 238)" stroke="" stroke-width="" />
<path fill="rgb(202, 45, 236)" stroke="rgb(202, 45, 236)" stroke-width="1" d="M 500.0,500.0A 0.0,0.0 0 1 1 500.0,500.0L 375.30449371752195,508.7195592180156A 125.0,125.0 0 1 0 398.87287570313157,426.52684346344085L 500.0,500.0" />
<path fill="rgb(202, 45, 236)" stroke="rgb(202, 45, 236)" stroke-width="1" d="M 380.0,500.0A 120.0,120.0 0 1 1 560.0,603.9230484541326L 622.5,712.1762239271875A 245.0,245.0 0 1 0 255.0,500.00000000000006L 380.0,500.0" />
<path fill="rgb(202, 45, 236)" stroke="rgb(202, 45, 236)" stroke-width="1" d="M 574.1640786499873,728.2535639108369A 240.0,240.0 0 0 1 352.24124592184205,310.87741913438674L 275.2835615061348,212.37607493354648A 365.0,365.0 0 0 0 612.7912029468558,847.135628447731L 574.1640786499873,728.2535639108369" />
<path fill="rgb(202, 45, 236)" stroke="rgb(202, 45, 236)" stroke-width="1" d="M 208.75388202501892,288.3973091747097A 360.0,360.0 0 0 1 858.0278823325784,537.6302467763551L 982.3431192536126,550.6963046848117A 485.0,485.0 0 0 0 107.6267577281505,214.9241526381506L 208.75388202501892,288.3973091747097" /></svg>