<svg xmlns="http://www.w3.org/2000/svg" version="1.1" width="1000" height="1000" viewBox="0 0 1000 1000"><circle cx="500.0" cy="500.0" r="500.0" fill="rgb(238, 238, 238)" stroke="" stroke-width="" />
<path fill="rgb(36, 147, 193)" stroke="rgb(36, 147, 193)" stroke-width="1" d="M 500.0,500.0A 0.0,0.0 0 1 1 500.0,500.0L 393.9939879804468,433.7600919708493A 125.0,125.0 0 1 0 461.37287570313157,381.1179354631058L 500.0,500.0" />
<path fill="rgb(36, 147, 193)" stroke="rgb(36, 147, 193)" stroke-width="1" d="M 380.0,500.0A 120.0,120.0 0 1 1 479.1622186799684,618.176930361465L 457.4561964716022,741.277899487991A 245.0,245.0 0 1 0 255.0,500.00000000000006L 380.0,500.0" />
<path fill="rgb(36, 147, 193)" stroke="rgb(36, 147, 193)" stroke-width="1" d="M 305.83592135001265,641.0684605501935A 240.0,240.0 0 1 1 739.4153720623578,516.74155369859L 864.1108783448359,525.4611129166057A 365.0,365.0 0 1 0 204.70879705314422,714.5416170867527L 305.83592135001265,641.0684605501935" />
<path fill="rgb(36, 147, 193)" stroke="rgb(36, 147, 193)" stroke-width="1" d="M 388.75388202501887,157.61965413374475A 360.0,360.0 0 0 1 669.0097626029208,817.8611334292136L 727.6937079511571,928.2295825365795A 485.0,485.0 0 0 0 350.12675772815044,38.73758959685051L 388.75388202501887,157.61965413374475" /></svg>