<svg xmlns="http://www.w3.org/2000/svg" version="1.1" width="1000" height="1000" viewBox="0 0 1000 1000"><circle cx="500.0" cy="500.0" r="500.0" fill="rgb(238, 238, 238)" stroke="" stroke-width="" />
<path fill="rgb(146, 149, 18)" stroke="rgb(146, 149, 18)" stroke-width="1" d="M 500.0,500.0A 0.0,0.0 0 1 1 500.0,500.0L 375.30449371752195,508.7195592180156A 125.0,125.0 0 1 0 398.87287570313157,426.52684346344085L 500.0,500.0" />
<path fill="rgb(146, 149, 18)" stroke="rgb(146, 149, 18)" stroke-width="1" d="M 402.91796067500627,429.4657697249032A 120.0,120.0 0 1 1 487.45658440788156,619.3426274441928L 474.3905264994248,743.6578643652269A 245.0,245.0 0 1 0 301.7908363781379,355.9926131883441L 402.91796067500627,429.4657697249032" />
<path fill="rgb(146, 149, 18)" stroke="rgb(146, 149, 18)" stroke-width="1" d="M 260.0,500.00000000000006A 240.0,240.0 0 1 1 725.526228988618,582.0848343981605L 842.9878065868565,624.8373523138691A 365.0,365.0 0 1 0 135.0,500.00000000000006L 260.0,500.00000000000006" />
<path fill="rgb(146, 149, 18)" stroke="rgb(146, 149, 18)" stroke-width="1" d="M 208.75388202501892,288.3973091747097A 360.0,360.0 0 1 1 750.0770133652392,758.9623281219143L 836.9093096726139,848.8798031642457A 485.0,485.0 0 1 0 107.6267577281505,214.9241526381506L 208.75388202501892,288.3973091747097" /></svg>